<?xml version="1.0" encoding="UTF-8"?>
<svg width="864px" height="227px" viewBox="0 0 864 227" version="1.1" xmlns="http://www.w3.org/2000/svg" xmlns:xlink="http://www.w3.org/1999/xlink">
    <title>cover</title>
    <defs>
        <linearGradient x1="49.9748464%" y1="0.136149043%" x2="49.9748464%" y2="81.4333131%" id="linearGradient-1">
            <stop stop-color="#145FD9" offset="3.77575%"></stop>
            <stop stop-color="#0C77DA" offset="25.41%"></stop>
            <stop stop-color="#0391DB" offset="53.54%"></stop>
            <stop stop-color="#009ADB" offset="70.47%"></stop>
        </linearGradient>
        <linearGradient x1="49.9744976%" y1="0.46895613%" x2="49.9744976%" y2="92.5729189%" id="linearGradient-2">
            <stop stop-color="#0F7ADD" offset="0.861019%"></stop>
            <stop stop-color="#1CA1EA" offset="34.87%"></stop>
            <stop stop-color="#25BDF4" offset="64.84%"></stop>
            <stop stop-color="#28C7F7" offset="82.25%"></stop>
        </linearGradient>
    </defs>
    <g id="cover" stroke="none" stroke-width="1" fill="none" fill-rule="evenodd">
        <rect fill="#0E2C4E" x="0" y="0" width="864" height="227"></rect>
        <g id="logo" transform="translate(338.090992, 92.090718)" fill-rule="nonzero">
            <path d="M72.7390472,22.2239669 C72.7390472,24.5566049 71.1981848,26.1116969 69.0850892,26.1116969 C66.9718665,26.1116969 65.4310041,24.5566049 65.4310041,22.2239669 L65.4310041,13.8005519 L62.1292287,13.8005519 L62.1292287,22.3535579 C62.1292287,26.5868639 65.5631361,29.1786839 69.0850892,29.1786839 C72.6069152,29.1786839 76.0408226,26.5868639 76.0408226,22.3535579 L76.0408226,13.8005519 L72.7390472,13.8005519 L72.7390472,22.2239669 Z" id="Path" fill="#FFFFFF"></path>
            <path d="M119.493066,15.7008387 L119.493066,13.8001707 L116.191164,13.8001707 L116.191164,28.7895297 L119.493066,28.7895297 L119.493066,21.2300547 C119.493066,19.7181597 119.977254,18.6382347 120.901796,17.9470827 C121.782253,17.2559307 123.543293,16.9535517 124.820018,17.0399457 L124.820018,13.4977917 C122.530704,13.4977917 120.505527,14.3617317 119.493066,15.7008387 Z" id="Path" fill="#FFFFFF"></path>
            <path d="M150.882039,13.4112707 C149.033462,13.4112707 147.272549,14.2320137 145.995696,15.4847267 L145.995696,9.35070187 L142.693667,9.35070187 L142.693667,28.7894027 L145.995696,28.7894027 L145.995696,20.6683667 C145.995696,18.2925317 147.712142,16.3918637 150.04605,16.3918637 C152.158892,16.3918637 153.303612,17.6013797 153.303612,19.8476237 L153.303612,28.7030087 L156.605642,28.7030087 L156.605642,19.5452447 C156.605642,15.7439087 154.403865,13.4112707 150.882039,13.4112707 Z" id="Path" fill="#FFFFFF"></path>
            <path d="M187.818015,16.9104818 L187.818015,13.8002978 L183.856596,13.8002978 L183.856596,9.65343661 L180.554567,10.9493466 L180.554567,13.8002978 L178.045329,13.8002978 L178.045329,16.9104818 L180.554567,16.9104818 L180.554567,23.1740468 C180.554567,27.1049738 182.755073,29.2648238 187.818015,28.7896568 L187.818015,25.8954578 C184.912382,26.1978368 183.856596,25.0315178 183.856596,23.0876528 L183.856596,16.9104818 L187.818015,16.9104818 Z" id="Path" fill="#FFFFFF"></path>
            <path d="M172.234062,15.5715018 C170.825078,14.2323948 168.887565,13.4116518 166.862388,13.4116518 C162.592238,13.4116518 159.290208,16.9538058 159.290208,21.2735058 C159.290208,25.5932058 162.592238,29.1352328 166.862388,29.1352328 C168.932033,29.1352328 170.825078,28.3146168 172.234062,26.9755098 L172.234062,28.7465868 L175.536092,28.7465868 L175.536092,13.8004248 L172.234062,13.8004248 L172.234062,15.5715018 Z M167.347719,26.0683728 C164.661882,26.0683728 162.592238,23.9085228 162.592238,21.2735058 C162.592238,18.6384888 164.70635,16.4786388 167.347719,16.4786388 C169.989089,16.4786388 172.234062,18.4225038 172.234062,21.2735058 C172.234062,24.1245078 169.989089,26.0683728 167.347719,26.0683728 Z" id="Shape" fill="#FFFFFF"></path>
            <path d="M133.448238,16.4786388 C135.650015,16.4786388 136.971335,17.3425788 137.630724,18.6384888 L140.361029,17.0833968 C138.996512,14.8803498 136.530471,13.4116518 133.272909,13.4116518 C128.958291,13.4116518 125.348292,16.9538058 125.348292,21.2735058 C125.348292,25.6364028 128.958291,29.1352328 133.272909,29.1352328 C136.530471,29.1352328 138.996512,27.6666618 140.361029,25.4636148 L137.630724,23.9085228 C136.971335,25.2044328 135.650015,26.0683728 133.448238,26.0683728 C130.806869,26.0683728 128.694027,23.9085228 128.694027,21.2735058 C128.694027,18.6384888 130.806869,16.4786388 133.448238,16.4786388 Z" id="Path" fill="#FFFFFF"></path>
            <path d="M87.8395749,13.4116518 C85.7704386,13.4116518 83.8773936,14.2323948 82.4686632,15.5715018 L82.4686632,13.8004248 L79.1667607,13.8004248 L79.1667607,33.2389478 L82.4686632,33.2389478 L82.4686632,26.9755098 C83.8773936,28.3146168 85.8143979,29.1352328 87.8395749,29.1352328 C92.1099795,29.1352328 95.4117549,25.5932058 95.4117549,21.2735058 C95.4117549,16.9538058 92.0658931,13.4116518 87.8395749,13.4116518 Z M87.311301,26.0683728 C84.6258451,26.0683728 82.4245768,24.1245078 82.4245768,21.2735058 C82.4245768,18.4225038 84.6258451,16.4786388 87.311301,16.4786388 C89.9967568,16.4786388 92.0658931,18.6384888 92.0658931,21.2735058 C92.0658931,23.9085228 89.9967568,26.0683728 87.311301,26.0683728 Z" id="Shape" fill="#FFFFFF"></path>
            <path d="M105.580964,13.4116518 C101.2666,13.4116518 97.5244693,16.9538058 97.5244693,21.2735058 C97.5244693,25.6364028 101.398605,29.1352328 105.66901,29.1352328 C108.926826,29.1352328 111.304185,27.5802678 112.668829,25.4636148 L109.939414,23.9085228 C109.279008,25.2044328 107.826192,26.2843578 105.66901,26.2411608 C103.423782,26.1547668 101.2666,24.8156598 100.914417,22.6126128 L113.505327,22.6126128 C113.593372,22.1806428 113.637459,21.7486728 113.637459,21.3167028 C113.637459,20.8847328 113.593372,20.4095658 113.505327,19.9775958 C112.845048,16.2194568 109.41114,13.4116518 105.580964,13.4116518 Z M100.914417,19.9775958 C101.398605,17.8177458 103.335736,16.5650328 105.580964,16.5218358 C107.870278,16.4786388 109.719237,17.8177458 110.159465,19.9775958 L100.914417,19.9775958 Z" id="Shape" fill="#FFFFFF"></path>
            <path d="M60.0600924,23.3035107 C60.0600924,26.5432857 57.0664132,29.1783027 52.8841813,29.1783027 C48.7459087,29.1783027 45.7961889,27.0184527 44.3874585,24.9449967 L47.4250969,23.2171167 C47.4250969,23.2171167 49.4502739,25.8089367 52.6200444,25.8089367 C55.7898148,25.8089367 56.49418,24.3834357 56.49418,23.3035107 C56.49418,22.3963737 56.0539518,21.1868577 52.1357298,19.8909477 C47.028955,18.2926587 45.13591,16.7375667 45.13591,13.4977917 C45.13591,10.2580167 48.0855028,7.62299974 52.2678618,7.62299974 C56.4061344,7.62299974 58.6953213,9.78284974 60.0600924,11.8563057 L57.1544589,13.5409887 C57.1544589,13.5409887 55.5256779,11.0355627 52.5319987,11.0355627 C49.3622283,11.0355627 48.6578631,12.4610637 48.6578631,13.5409887 C48.6578631,14.4913227 49.186137,15.5280507 53.1483183,16.8239607 C58.2991794,18.3790527 60.0600924,20.0637357 60.0600924,23.3035107 Z" id="Path" fill="#FFFFFF"></path>
            <path d="M18.1930518,15.6299448 L35.8028171,25.6084518 C36.6391872,26.0836188 36.6391872,27.2931348 35.8028171,27.7683018 L18.1930518,37.7036118 L10.3567221,42.1529028 C9.52025035,42.6280698 8.46367715,42.0233118 8.46367715,41.0729778 L8.46367715,32.2175928 L0.627346219,27.7683018 C-0.209115407,27.2931348 -0.209115407,26.0836188 0.627346219,25.6084518 L18.1930518,15.6299448 Z" id="Path" fill="url(#linearGradient-1)"></path>
            <path d="M0.627346219,22.2397211 L17.136504,31.6134701 C17.7967828,32.0022431 18.5893208,32.0022431 19.2495996,31.6134701 L35.8028171,22.2397211 C36.6391872,21.7645541 36.6391872,20.5550381 35.8028171,20.0798711 L18.1930518,10.1013387 L0.627346219,20.0798711 C-0.209115407,20.5550381 -0.209115407,21.7645541 0.627346219,22.2397211 Z" id="Path" fill="url(#linearGradient-2)"></path>
            <path d="M17.136504,26.0838729 L0.627346219,16.7101239 C-0.209115407,16.2349569 -0.209115407,15.0254409 0.627346219,14.5502739 L18.1930518,4.61495124 L26.0293687,0.16566151 C26.865866,-0.30950549 27.9224138,0.29525251 27.9224138,1.24558651 L27.9224138,10.1009702 L35.8028171,14.5502739 C36.6391872,15.0254409 36.6391872,16.2349569 35.8028171,16.7101239 L19.2495996,26.0838729 C18.6332801,26.4726459 17.7967828,26.4726459 17.136504,26.0838729 Z" id="Path" fill="#85E3FF"></path>
        </g>
        <circle id="Oval" stroke="#979797" stroke-width="1.5" opacity="0.0516698928" cx="758.735837" cy="-100.764163" r="284.735837"></circle>
        <circle id="Oval-Copy" stroke="#979797" stroke-width="1.5" opacity="0.0516698928" cx="-33.2641631" cy="163.235837" r="284.735837"></circle>
    </g>
</svg>