<?xml version="1.0" encoding="UTF-8"?>
<svg width="864px" height="244px" viewBox="0 0 864 244" version="1.1" xmlns="http://www.w3.org/2000/svg" xmlns:xlink="http://www.w3.org/1999/xlink">
    <title>tech-stack</title>
    <defs>
        <linearGradient x1="49.9748464%" y1="0.136149043%" x2="49.9748464%" y2="81.4333131%" id="linearGradient-1">
            <stop stop-color="#145FD9" offset="3.77575%"></stop>
            <stop stop-color="#0C77DA" offset="25.41%"></stop>
            <stop stop-color="#0391DB" offset="53.54%"></stop>
            <stop stop-color="#009ADB" offset="70.47%"></stop>
        </linearGradient>
        <linearGradient x1="49.9744976%" y1="0.46895613%" x2="49.9744976%" y2="92.5729189%" id="linearGradient-2">
            <stop stop-color="#0F7ADD" offset="0.861019%"></stop>
            <stop stop-color="#1CA1EA" offset="34.87%"></stop>
            <stop stop-color="#25BDF4" offset="64.84%"></stop>
            <stop stop-color="#28C7F7" offset="82.25%"></stop>
        </linearGradient>
    </defs>
    <g id="tech-stack" stroke="none" stroke-width="1" fill="none" fill-rule="evenodd">
        <rect id="Rectangle" fill="#0E2C4E" fill-rule="nonzero" x="-57.2307691" y="-55" width="978.461538" height="299"></rect>
        <g id="Group-2" transform="translate(125.029367, 70.579528)">
            <path d="M1.608,62.4409449 L1.608,56.4409449 L5.652,62.4409449 L7.416,62.4409449 L7.416,54.2089449 L5.808,54.2089449 L5.808,60.1969449 L1.764,54.2089449 L0,54.2089449 L0,62.4409449 L1.608,62.4409449 Z M11.58,62.6089449 C13.536,62.6089449 14.832,61.3369449 14.832,59.4409449 C14.832,57.5449449 13.536,56.2729449 11.58,56.2729449 C9.624,56.2729449 8.328,57.5449449 8.328,59.4409449 C8.328,61.3369449 9.624,62.6089449 11.58,62.6089449 Z M11.58,61.3369449 C10.488,61.3369449 9.768,60.5809449 9.768,59.4409449 C9.768,58.3009449 10.488,57.5449449 11.58,57.5449449 C12.672,57.5449449 13.392,58.3009449 13.392,59.4409449 C13.392,60.5809449 12.672,61.3369449 11.58,61.3369449 Z M18.624,62.6089449 C19.356,62.6089449 20.16,62.2729449 20.616,61.7809449 L20.616,62.4409449 L22.056,62.4409449 L22.056,54.2089449 L20.616,54.2089449 L20.616,57.1009449 C20.16,56.6089449 19.356,56.2729449 18.624,56.2729449 C16.728,56.2729449 15.456,57.5449449 15.456,59.4409449 C15.456,61.3369449 16.728,62.6089449 18.624,62.6089449 Z M18.768,61.3369449 C17.64,61.3369449 16.896,60.5809449 16.896,59.4409449 C16.896,58.3009449 17.64,57.5449449 18.768,57.5449449 C19.872,57.5449449 20.616,58.3009449 20.616,59.4409449 C20.616,60.5809449 19.872,61.3369449 18.768,61.3369449 Z M26.172,62.6089449 C27.636,62.6089449 28.884,61.7209449 29.28,60.4009449 L27.816,60.4009449 C27.54,61.0009449 26.88,61.4089449 26.172,61.4089449 C25.236,61.4089449 24.516,60.7849449 24.384,59.8369449 L29.304,59.8369449 L29.424,59.7169449 L29.424,59.4409449 C29.424,57.5449449 28.128,56.2729449 26.172,56.2729449 C24.216,56.2729449 22.92,57.5449449 22.92,59.4409449 C22.92,61.3369449 24.216,62.6089449 26.172,62.6089449 Z M27.864,58.6369449 L24.48,58.6369449 C24.756,57.8929449 25.368,57.4729449 26.172,57.4729449 C26.976,57.4729449 27.588,57.8929449 27.864,58.6369449 Z M32.064,62.4409449 L32.064,60.6649449 L30.288,60.6649449 L30.288,62.4409449 L32.064,62.4409449 Z M34.8,55.5289449 L34.8,54.2089449 L33.36,54.2089449 L33.36,55.5289449 L34.8,55.5289449 Z M33.012,64.8409449 C34.08,64.8409449 34.8,64.0729449 34.8,62.9209449 L34.8,56.4409449 L33.36,56.4409449 L33.36,62.9209449 C33.36,63.4129449 33.192,63.6409449 32.832,63.6409449 L32.1,63.6409449 L32.1,64.6729449 C32.304,64.7689449 32.664,64.8409449 33.012,64.8409449 Z M38.448,62.6089449 C40.116,62.6089449 41.232,61.8169449 41.232,60.6289449 C41.232,59.5369449 40.596,59.0809449 38.592,58.6609449 C37.74,58.4689449 37.464,58.3129449 37.464,58.0609449 C37.464,57.7129449 37.86,57.4729449 38.448,57.4729449 C38.976,57.4729449 39.456,57.7489449 39.636,58.1569449 L40.956,57.8329449 C40.608,56.8969449 39.6,56.2729449 38.448,56.2729449 C36.996,56.2729449 36.024,57.0169449 36.024,58.1329449 C36.024,59.1289449 36.576,59.5249449 38.316,59.9209449 C39.432,60.1369449 39.792,60.3409449 39.792,60.6289449 C39.792,61.0969449 39.252,61.4089449 38.448,61.4089449 C37.644,61.4089449 37.068,61.0009449 37.02,60.4009449 L35.664,60.4009449 C35.712,61.7209449 36.828,62.6089449 38.448,62.6089449 Z" id="Node.js" fill="#FFFFFF" fill-rule="nonzero"></path>
            <g id="nodejs-icon" transform="translate(4.727150, 0.000000)" fill="#FFFFFF" fill-rule="nonzero" stroke-linecap="round" stroke-linejoin="round">
                <g id="A">
                    <path d="M15.4175546,0.398912137 C16.354792,-0.13179852 17.5497696,-0.134141614 18.4635761,0.398912137 L32.4565299,8.2869361 C33.3316753,8.77898571 33.9174486,9.75488412 33.9093328,10.7635858 L33.9093328,26.5794663 C33.9151055,27.6303437 33.2719264,28.62733 32.3487476,29.1100072 L18.4307727,36.9617132 C17.4613071,37.4974578 16.2774272,37.4647093 15.339061,36.8761903 L11.162497,34.4628041 C10.8778111,34.2929298 10.5579789,34.158202 10.3564729,33.8828885 C10.534548,33.643893 10.8508656,33.6134327 11.1086058,33.5079935 C11.689693,33.3228892 12.2215752,33.0393749 12.7558005,32.7394589 C12.8905284,32.6457352 13.0557165,32.6808816 13.1845866,32.7652329 L16.7460886,34.824812 C17.0003142,34.9712554 17.2580545,34.7779502 17.4759622,34.6549378 L31.1420545,26.9426458 C31.3107572,26.8606375 31.404481,26.6825624 31.3904224,26.4974581 L31.3904224,10.8338786 C31.4091671,10.6230002 31.2884978,10.4308666 31.0975357,10.3453437 L17.2264227,2.5276125 C17.0626341,2.41432801 16.8459279,2.41386198 16.6816535,2.52644095 L2.8070259,10.3605738 C2.61957843,10.4460967 2.49070829,10.6358872 2.51413923,10.8467656 L2.51413923,26.5103451 C2.49676166,26.6953158 2.59761408,26.8712212 2.76602177,26.9496751 L6.47045245,29.040886 C7.16635119,29.4157809 8.02040874,29.6266593 8.78660028,29.3513458 C9.47323318,29.0925718 9.92680045,28.4344088 9.92417213,27.7006365 L9.92768677,12.1190654 C9.91128512,11.8882707 10.1291928,11.6973086 10.3529582,11.7207395 L12.1337092,11.7207395 C12.3680186,11.7148818 12.5519514,11.9632497 12.5203196,12.1952159 L12.516805,27.875197 C12.5179765,29.2669945 11.9462617,30.7806328 10.6587319,31.4636445 C9.07245768,32.2837272 7.11128849,32.1115099 5.543759,31.3230589 L1.56050021,29.1205511 C0.60997383,28.6331337 0.00875609864,27.658186 0,26.5900103 L0,10.7741297 C0.00793592084,9.72731158 0.582888535,8.7671138 1.50192287,8.26584825 L15.4175546,0.398912137 Z M19.4523615,11.3622462 C21.4756226,11.2450915 23.6418125,11.2849241 25.4623961,12.2819104 C26.8717668,13.0457588 27.6531884,14.6484347 27.6789624,16.2159642 C27.6391298,16.4268426 27.4188791,16.5439973 27.217373,16.5287672 C26.6315997,16.5275956 26.0434832,16.536968 25.4553668,16.5252525 C25.2058273,16.5346249 25.0617271,16.3050017 25.0300953,16.084751 C24.8613926,15.3349611 24.4525228,14.593372 23.7472517,14.2313641 C22.6647425,13.6889379 21.4088445,13.7158835 20.2279254,13.727599 C19.365667,13.7744609 18.4389736,13.8482683 17.7091,14.3543765 C17.1467576,14.7386438 16.9780548,15.5259232 17.1783893,16.1374706 C17.3658368,16.5861729 17.884832,16.7302732 18.3077603,16.8638295 C20.7469206,17.5011509 23.3301811,17.4496029 25.723651,18.2778864 C26.7136079,18.619978 27.6824771,19.2854166 28.0222256,20.3222354 C28.4650703,21.7116898 28.2717651,23.372943 27.2841512,24.4882555 C26.4828132,25.4067481 25.3159527,25.8941115 24.1502638,26.1776258 C22.6003075,26.5232321 20.9929454,26.5314329 19.4195582,26.3767888 C17.9398947,26.208086 16.4004823,25.8191325 15.2582243,24.8116024 C14.2811543,23.9634025 13.8055064,22.6418979 13.8523682,21.367255 C13.8640837,21.1516905 14.0784767,21.0017325 14.2858405,21.0193057 L16.0431606,21.0193057 C16.279813,21.002904 16.4532019,21.2067531 16.4649174,21.429347 C16.5738712,22.132275 16.8421554,22.8937804 17.4654183,23.3038217 C18.6674252,24.0793857 20.1752058,24.0254945 21.5506016,24.0477539 C22.6905166,23.9973774 23.9698456,23.9821473 24.9012252,23.2276712 C25.3932748,22.7977136 25.5373751,22.0795554 25.4049903,21.4609788 C25.26089,20.938469 24.7020623,20.6959588 24.2334436,20.5237414 C21.8259151,19.7622361 19.2133659,20.0387211 16.8292684,19.1764627 C15.8615708,18.8343711 14.925505,18.1876773 14.5541247,17.1930341 C14.0351295,15.7871781 14.2729535,14.0450881 15.3660066,12.9672652 C16.4203986,11.8952999 17.9668403,11.481744 19.4312736,11.3341291 L19.4523615,11.3622462 Z" id="Shape"></path>
                </g>
            </g>
            <g id="language-typescript" transform="translate(108.868600, 6.370537)" fill="#FFFFFF" fill-rule="nonzero">
                <path d="M0,0 L31.5922575,0 L31.5922575,31.5923453 L0,31.5923453 L0,0 Z M18.8049332,26.0826525 C19.6742473,27.8005702 21.4557005,29.1153354 24.2124776,29.1153354 C27.0329657,29.1153354 29.1324479,27.6520865 29.1324479,24.9799066 C29.1324479,22.4988599 27.7114975,21.3962895 25.1879768,20.3146051 L24.4457339,19.9965762 C23.1734427,19.4451155 22.621982,19.0846125 22.621982,18.1938859 C22.621982,17.47288 23.1734427,16.9215948 24.0429324,16.9215948 C24.8911849,16.9215948 25.4424701,17.2820977 25.9514568,18.1938859 L28.2629583,16.7094 C27.2876345,14.9916578 25.9303953,14.3341875 24.0429324,14.3341875 C21.3919895,14.3341875 19.6954843,16.0308681 19.6954843,18.257597 C19.6954843,20.6751081 21.1164346,21.8203281 23.2583909,22.7319407 L24.0004583,23.0503206 C25.3576975,23.6439044 26.1634761,24.0044073 26.1634761,25.0223806 C26.1634761,25.8706332 25.3791101,26.485805 24.148942,26.485805 C22.6856931,26.485805 21.8586776,25.722325 21.2222687,24.6831147 L18.8049332,26.0826525 Z M17.5512464,14.4798629 L8.77561441,14.4798629 L8.77561441,17.1125525 L11.408304,17.1125525 L11.408304,29.8372189 L14.4797752,29.8372189 L14.4797752,17.1125525 L17.5512464,17.1125525 L17.5512464,14.4798629 Z" id="Shape"></path>
            </g>
            <path d="M98.3797168,62.5249449 L98.3797168,55.7329449 L100.755717,55.7329449 L100.755717,54.2929449 L94.3957168,54.2929449 L94.3957168,55.7329449 L96.7717168,55.7329449 L96.7717168,62.5249449 L98.3797168,62.5249449 Z M104.163717,64.7569449 L107.403717,56.5249449 L105.855717,56.5249449 L104.379717,60.2929449 L102.891717,56.5249449 L101.355717,56.5249449 L103.647717,62.1409449 L102.615717,64.7569449 L104.163717,64.7569449 Z M109.659717,64.7569449 L109.659717,61.8649449 C110.115717,62.3569449 110.919717,62.6929449 111.651717,62.6929449 C113.547717,62.6929449 114.819717,61.4209449 114.819717,59.5249449 C114.819717,57.6289449 113.547717,56.3569449 111.651717,56.3569449 C110.919717,56.3569449 110.115717,56.6929449 109.659717,57.1849449 L109.659717,56.5249449 L108.219717,56.5249449 L108.219717,64.7569449 L109.659717,64.7569449 Z M111.507717,61.4209449 C110.403717,61.4209449 109.659717,60.6649449 109.659717,59.5249449 C109.659717,58.3849449 110.403717,57.6289449 111.507717,57.6289449 C112.635717,57.6289449 113.379717,58.3849449 113.379717,59.5249449 C113.379717,60.6649449 112.635717,61.4209449 111.507717,61.4209449 Z M118.695717,62.6929449 C120.159717,62.6929449 121.407717,61.8049449 121.803717,60.4849449 L120.339717,60.4849449 C120.063717,61.0849449 119.403717,61.4929449 118.695717,61.4929449 C117.759717,61.4929449 117.039717,60.8689449 116.907717,59.9209449 L121.827717,59.9209449 L121.947717,59.8009449 L121.947717,59.5249449 C121.947717,57.6289449 120.651717,56.3569449 118.695717,56.3569449 C116.739717,56.3569449 115.443717,57.6289449 115.443717,59.5249449 C115.443717,61.4209449 116.739717,62.6929449 118.695717,62.6929449 Z M120.387717,58.7209449 L117.003717,58.7209449 C117.279717,57.9769449 117.891717,57.5569449 118.695717,57.5569449 C119.499717,57.5569449 120.111717,57.9769449 120.387717,58.7209449 Z M125.355717,62.6929449 C127.023717,62.6929449 128.139717,61.9009449 128.139717,60.7129449 C128.139717,59.6209449 127.503717,59.1649449 125.499717,58.7449449 C124.647717,58.5529449 124.371717,58.3969449 124.371717,58.1449449 C124.371717,57.7969449 124.767717,57.5569449 125.355717,57.5569449 C125.883717,57.5569449 126.363717,57.8329449 126.543717,58.2409449 L127.863717,57.9169449 C127.515717,56.9809449 126.507717,56.3569449 125.355717,56.3569449 C123.903717,56.3569449 122.931717,57.1009449 122.931717,58.2169449 C122.931717,59.2129449 123.483717,59.6089449 125.223717,60.0049449 C126.339717,60.2209449 126.699717,60.4249449 126.699717,60.7129449 C126.699717,61.1809449 126.159717,61.4929449 125.355717,61.4929449 C124.551717,61.4929449 123.975717,61.0849449 123.927717,60.4849449 L122.571717,60.4849449 C122.619717,61.8049449 123.735717,62.6929449 125.355717,62.6929449 Z M132.015717,62.6929449 C133.647717,62.6929449 134.907717,61.6489449 135.159717,60.0889449 L133.779717,60.0889449 C133.599717,60.8929449 132.891717,61.4209449 132.015717,61.4209449 C130.923717,61.4209449 130.203717,60.6649449 130.203717,59.5249449 C130.203717,58.3849449 130.923717,57.6289449 132.015717,57.6289449 C132.879717,57.6289449 133.575717,58.1329449 133.767717,58.9009449 L135.147717,58.9009449 C134.883717,57.3769449 133.635717,56.3569449 132.015717,56.3569449 C130.059717,56.3569449 128.763717,57.6289449 128.763717,59.5249449 C128.763717,61.4209449 130.059717,62.6929449 132.015717,62.6929449 Z M137.463717,62.5249449 L137.463717,58.9729449 C137.463717,58.1689449 138.099717,57.6289449 139.059717,57.6289449 L139.551717,57.6289449 L139.551717,56.5249449 C139.383717,56.4529449 139.131717,56.4049449 138.915717,56.4049449 C138.363717,56.4049449 137.775717,56.7409449 137.463717,57.2329449 L137.463717,56.5249449 L136.023717,56.5249449 L136.023717,62.5249449 L137.463717,62.5249449 Z M141.879717,55.6129449 L141.879717,54.2929449 L140.439717,54.2929449 L140.439717,55.6129449 L141.879717,55.6129449 Z M141.879717,62.5249449 L141.879717,56.5249449 L140.439717,56.5249449 L140.439717,62.5249449 L141.879717,62.5249449 Z M144.423717,64.7569449 L144.423717,61.8649449 C144.879717,62.3569449 145.683717,62.6929449 146.415717,62.6929449 C148.311717,62.6929449 149.583717,61.4209449 149.583717,59.5249449 C149.583717,57.6289449 148.311717,56.3569449 146.415717,56.3569449 C145.683717,56.3569449 144.879717,56.6929449 144.423717,57.1849449 L144.423717,56.5249449 L142.983717,56.5249449 L142.983717,64.7569449 L144.423717,64.7569449 Z M146.271717,61.4209449 C145.167717,61.4209449 144.423717,60.6649449 144.423717,59.5249449 C144.423717,58.3849449 145.167717,57.6289449 146.271717,57.6289449 C147.399717,57.6289449 148.143717,58.3849449 148.143717,59.5249449 C148.143717,60.6649449 147.399717,61.4209449 146.271717,61.4209449 Z M153.183717,62.6929449 C153.579717,62.6929449 153.987717,62.6209449 154.203717,62.5249449 L154.203717,61.4929449 L153.159717,61.4929449 C152.847717,61.4929449 152.631717,61.2889449 152.631717,60.9889449 L152.631717,57.7249449 L154.143717,57.7249449 L154.143717,56.5249449 L152.631717,56.5249449 L152.631717,54.2929449 L151.191717,54.2929449 L151.191717,56.5249449 L150.231717,56.5249449 L150.231717,57.7249449 L151.191717,57.7249449 L151.191717,60.9889449 C151.191717,62.0089449 151.983717,62.6929449 153.183717,62.6929449 Z" id="Typescript" fill="#FFFFFF" fill-rule="nonzero"></path>
            <g id="graphql-icon" transform="translate(300.025458, 3.248353)" fill="#FFFFFF" fill-rule="nonzero" stroke-linecap="round" stroke-linejoin="round">
                <g id="Group">
                    <polygon id="Path" points="2.8750051 27.0540738 1.57318913 26.3013835 16.0900735 1.1586412 17.3918894 1.91133156"></polygon>
                    <polygon id="Path" points="1.27366607 24.2918056 30.3096535 24.2918056 30.3096535 25.7971863 1.27366607 25.7971863"></polygon>
                    <path d="M16.3712924,33.5243266 L1.84886128,25.1393449 L2.60155164,23.837529 L17.1239827,32.2225107 L16.3712924,33.5243266 Z M28.9878693,11.6685726 L14.4643289,3.28525493 L15.2170192,1.98343896 L29.7394503,10.3684207 L28.9878693,11.6685726 Z" id="Shape"></path>
                    <polygon id="Path" points="2.60543434 11.6641352 1.85274398 10.3623193 16.3884872 1.97511888 17.1411776 3.27693485"></polygon>
                    <path d="M28.7205172,27.0535192 L14.2014142,1.9085582 L15.5032301,1.15586784 L30.0223332,26.3008288 L28.7205172,27.0535192 Z M2.42516583,9.36335438 L3.93054655,9.36335438 L3.93054655,26.1333178 L2.42516583,26.1333178 L2.42516583,9.36335438 Z M27.6627571,9.36335438 L29.1681378,9.36335438 L29.1681378,26.1333178 L27.6627571,26.1333178 L27.6627571,9.36335438 Z" id="Shape"></path>
                    <polygon id="Path" points="16.1161431 32.8864534 15.459411 31.7482658 28.0909641 24.4554339 28.7476962 25.5936216"></polygon>
                    <path d="M31.1616302,26.6230934 C30.2856761,28.1342521 28.35304,28.6531754 26.8379593,27.7840226 C25.3268006,26.9080686 24.8078773,24.9754324 25.6770301,23.4603518 C26.5529842,21.9491931 28.4856203,21.4302698 30.000701,22.2994226 C31.5238312,23.1785782 32.0407858,25.1099473 31.1605208,26.6230934 M5.90628941,12.0379844 C5.03033537,13.5491431 3.09769921,14.0680664 1.58261856,13.1989136 C0.070797009,12.3229268 -0.448215481,10.3894627 0.421689358,8.87413338 C1.2976434,7.36297471 3.23027955,6.84405136 4.74536021,7.71320418 C6.25651889,8.58915822 6.77544223,10.5217944 5.90628941,12.036875 M0.43167346,26.6230934 C-0.437479361,25.1080128 0.081443983,23.1753766 1.59260266,22.2994226 C3.10768331,21.4302698 5.04031947,21.9491931 5.91627351,23.4603518 C6.78542633,24.9754324 6.26650299,26.9080686 4.75534431,27.7840226 C3.23221408,28.6537488 1.30029034,28.1390129 0.43167346,26.6242028 M25.6864595,12.0390937 C24.8173067,10.5240131 25.3362301,8.59137691 26.8473887,7.71542287 C28.3624694,6.84627005 30.2951056,7.36519339 31.1710596,8.87635207 C32.0402124,10.3914327 31.5212891,12.3240689 30.0101304,13.2000229 C28.4950497,14.0691757 26.5624136,13.5502524 25.6864595,12.0390937 M15.7966518,35.4978508 C14.5164681,35.4978508 13.3627496,34.7268562 12.8729739,33.5442948 C12.3831983,32.3617334 12.654433,31.0005675 13.5596583,30.0958969 C14.4648835,29.1912263 15.8260494,28.9205462 17.0086109,29.4108766 C18.1911723,29.9012069 18.9616122,31.0549254 18.9610578,32.3351091 C18.9555718,34.0802149 17.5417603,35.4932831 15.7966518,35.4978508 M15.7966518,6.32708078 C14.9568779,6.32818736 14.1514937,5.99538396 13.5579943,5.40188456 C12.9644949,4.80838516 12.6311368,4.00244626 12.6327946,3.16322702 C12.6327946,2.0328048 13.2357296,0.988356793 14.2147263,0.423700355 C15.193723,-0.140956082 16.3995806,-0.141510754 17.3785773,0.423700355 C18.357574,0.988911465 18.9605056,2.03335947 18.9605056,3.16322702 C18.9616122,4.00244626 18.6282541,4.80727582 18.0353094,5.40077522 C17.4423646,5.99427462 16.6369804,6.32708078 15.7977612,6.32596867" id="Shape"></path>
                </g>
            </g>
            <path d="M297.381563,62.7769449 C299.793563,62.7769449 301.401563,61.0609449 301.401563,58.4809449 L301.401563,57.9409449 L297.021563,57.9409449 L297.021563,59.3809449 L299.733563,59.3809449 C299.433563,60.5569449 298.485563,61.3369449 297.381563,61.3369449 C295.773563,61.3369449 294.705563,60.1969449 294.705563,58.4809449 C294.705563,56.7769449 295.773563,55.6489449 297.381563,55.6489449 C298.173563,55.6489449 298.989563,56.1529449 299.421563,56.9089449 L300.921563,56.5369449 C300.201563,55.1449449 298.785563,54.2089449 297.381563,54.2089449 C294.813563,54.2089449 293.097563,55.9129449 293.097563,58.4809449 C293.097563,61.0609449 294.813563,62.7769449 297.381563,62.7769449 Z M303.705563,62.6089449 L303.705563,59.0569449 C303.705563,58.2529449 304.341563,57.7129449 305.301563,57.7129449 L305.793563,57.7129449 L305.793563,56.6089449 C305.625563,56.5369449 305.373563,56.4889449 305.157563,56.4889449 C304.605563,56.4889449 304.017563,56.8249449 303.705563,57.3169449 L303.705563,56.6089449 L302.265563,56.6089449 L302.265563,62.6089449 L303.705563,62.6089449 Z M309.561563,62.7769449 C310.269563,62.7769449 311.049563,62.4529449 311.505563,61.9609449 L311.505563,62.6089449 L312.945563,62.6089449 L312.945563,56.6089449 L311.505563,56.6089449 L311.505563,57.2569449 C311.049563,56.7649449 310.269563,56.4409449 309.561563,56.4409449 C307.689563,56.4409449 306.441563,57.7129449 306.441563,59.6089449 C306.441563,61.5049449 307.689563,62.7769449 309.561563,62.7769449 Z M309.705563,61.5049449 C308.613563,61.5049449 307.881563,60.7489449 307.881563,59.6089449 C307.881563,58.4689449 308.613563,57.7129449 309.705563,57.7129449 C310.785563,57.7129449 311.505563,58.4689449 311.505563,59.6089449 C311.505563,60.7489449 310.785563,61.5049449 309.705563,61.5049449 Z M315.489563,64.8409449 L315.489563,61.9489449 C315.945563,62.4409449 316.749563,62.7769449 317.481563,62.7769449 C319.377563,62.7769449 320.649563,61.5049449 320.649563,59.6089449 C320.649563,57.7129449 319.377563,56.4409449 317.481563,56.4409449 C316.749563,56.4409449 315.945563,56.7769449 315.489563,57.2689449 L315.489563,56.6089449 L314.049563,56.6089449 L314.049563,64.8409449 L315.489563,64.8409449 Z M317.337563,61.5049449 C316.233563,61.5049449 315.489563,60.7489449 315.489563,59.6089449 C315.489563,58.4689449 316.233563,57.7129449 317.337563,57.7129449 C318.465563,57.7129449 319.209563,58.4689449 319.209563,59.6089449 C319.209563,60.7489449 318.465563,61.5049449 317.337563,61.5049449 Z M322.953563,62.6089449 L322.953563,59.0449449 C322.953563,58.2409449 323.541563,57.7129449 324.417563,57.7129449 C325.293563,57.7129449 325.881563,58.2409449 325.881563,59.0449449 L325.881563,62.6089449 L327.321563,62.6089449 L327.321563,58.8769449 C327.321563,57.4129449 326.229563,56.4409449 324.585563,56.4409449 C323.997563,56.4409449 323.349563,56.6809449 322.953563,57.0529449 L322.953563,54.3769449 L321.513563,54.3769449 L321.513563,62.6089449 L322.953563,62.6089449 Z M334.785563,64.8409449 L334.785563,56.6089449 L333.345563,56.6089449 L333.345563,57.2689449 C332.889563,56.7769449 332.085563,56.4409449 331.353563,56.4409449 C329.457563,56.4409449 328.185563,57.7129449 328.185563,59.6089449 C328.185563,61.5049449 329.457563,62.7769449 331.353563,62.7769449 C332.085563,62.7769449 332.889563,62.4409449 333.345563,61.9489449 L333.345563,64.8409449 L334.785563,64.8409449 Z M331.497563,61.5049449 C330.369563,61.5049449 329.625563,60.7489449 329.625563,59.6089449 C329.625563,58.4689449 330.369563,57.7129449 331.497563,57.7129449 C332.601563,57.7129449 333.345563,58.4689449 333.345563,59.6089449 C333.345563,60.7489449 332.601563,61.5049449 331.497563,61.5049449 Z M337.329563,62.6089449 L337.329563,54.3769449 L335.889563,54.3769449 L335.889563,62.6089449 L337.329563,62.6089449 Z" id="Graphql" fill="#FFFFFF" fill-rule="nonzero"></path>
            <path d="M207.573741,63.5569449 L207.573741,60.4489449 L209.625741,60.4489449 C211.329741,60.4489449 212.469741,59.4169449 212.469741,57.8689449 C212.469741,56.3449449 211.329741,55.3249449 209.625741,55.3249449 L205.965741,55.3249449 L205.965741,63.5569449 L207.573741,63.5569449 Z M209.625741,59.0089449 L207.573741,59.0089449 L207.573741,56.7649449 L209.625741,56.7649449 C210.369741,56.7649449 210.861741,57.2089449 210.861741,57.8689449 C210.861741,58.5529449 210.369741,59.0089449 209.625741,59.0089449 Z M214.773741,63.5569449 L214.773741,60.0049449 C214.773741,59.2009449 215.409741,58.6609449 216.369741,58.6609449 L216.861741,58.6609449 L216.861741,57.5569449 C216.693741,57.4849449 216.441741,57.4369449 216.225741,57.4369449 C215.673741,57.4369449 215.085741,57.7729449 214.773741,58.2649449 L214.773741,57.5569449 L213.333741,57.5569449 L213.333741,63.5569449 L214.773741,63.5569449 Z M219.189741,56.6449449 L219.189741,55.3249449 L217.749741,55.3249449 L217.749741,56.6449449 L219.189741,56.6449449 Z M219.189741,63.5569449 L219.189741,57.5569449 L217.749741,57.5569449 L217.749741,63.5569449 L219.189741,63.5569449 Z M222.837741,63.7249449 C224.505741,63.7249449 225.621741,62.9329449 225.621741,61.7449449 C225.621741,60.6529449 224.985741,60.1969449 222.981741,59.7769449 C222.129741,59.5849449 221.853741,59.4289449 221.853741,59.1769449 C221.853741,58.8289449 222.249741,58.5889449 222.837741,58.5889449 C223.365741,58.5889449 223.845741,58.8649449 224.025741,59.2729449 L225.345741,58.9489449 C224.997741,58.0129449 223.989741,57.3889449 222.837741,57.3889449 C221.385741,57.3889449 220.413741,58.1329449 220.413741,59.2489449 C220.413741,60.2449449 220.965741,60.6409449 222.705741,61.0369449 C223.821741,61.2529449 224.181741,61.4569449 224.181741,61.7449449 C224.181741,62.2129449 223.641741,62.5249449 222.837741,62.5249449 C222.033741,62.5249449 221.457741,62.1169449 221.409741,61.5169449 L220.053741,61.5169449 C220.101741,62.8369449 221.217741,63.7249449 222.837741,63.7249449 Z M227.925741,63.5569449 L227.925741,59.5129449 C227.925741,58.9969449 228.357741,58.6609449 229.017741,58.6609449 C229.677741,58.6609449 230.109741,58.9969449 230.109741,59.5129449 L230.109741,63.5569449 L231.549741,63.5569449 L231.549741,59.5129449 C231.549741,58.9969449 231.981741,58.6609449 232.641741,58.6609449 C233.301741,58.6609449 233.733741,58.9969449 233.733741,59.5129449 L233.733741,63.5569449 L235.173741,63.5569449 L235.173741,59.3689449 C235.173741,58.1809449 234.213741,57.3889449 232.785741,57.3889449 C232.125741,57.3889449 231.405741,57.6769449 230.985741,58.1089449 C230.577741,57.6769449 229.941741,57.3889449 229.389741,57.3889449 C228.813741,57.3889449 228.285741,57.6409449 227.925741,58.0969449 L227.925741,57.5569449 L226.485741,57.5569449 L226.485741,63.5569449 L227.925741,63.5569449 Z M239.157741,63.7249449 C239.865741,63.7249449 240.645741,63.4009449 241.101741,62.9089449 L241.101741,63.5569449 L242.541741,63.5569449 L242.541741,57.5569449 L241.101741,57.5569449 L241.101741,58.2049449 C240.645741,57.7129449 239.865741,57.3889449 239.157741,57.3889449 C237.285741,57.3889449 236.037741,58.6609449 236.037741,60.5569449 C236.037741,62.4529449 237.285741,63.7249449 239.157741,63.7249449 Z M239.301741,62.4529449 C238.209741,62.4529449 237.477741,61.6969449 237.477741,60.5569449 C237.477741,59.4169449 238.209741,58.6609449 239.301741,58.6609449 C240.381741,58.6609449 241.101741,59.4169449 241.101741,60.5569449 C241.101741,61.6969449 240.381741,62.4529449 239.301741,62.4529449 Z" id="Prisma" fill="#FFFFFF" fill-rule="nonzero"></path>
            <g id="prisma" transform="translate(208.020755, 0.300980)" fill-rule="nonzero" stroke-linecap="round" stroke-linejoin="round">
                <g id="A" transform="translate(0.658172, 0.236650)" fill="#000000">
                    <path d="M31.1490542,28.8470828 L18.1276262,1.19453381 C17.7982095,0.501149404 17.1147644,0.0444149622 16.3480185,0.00465776734 C15.5793794,-0.046931926 14.8462377,0.333127925 14.4453527,0.991014841 L0.322555809,23.8651276 C-0.115923798,24.5703277 -0.106698355,25.4655647 0.346220806,26.1615789 L7.25119362,36.8543711 C7.78752442,37.6790391 8.80265629,38.0523456 9.7454843,37.7716264 L29.7831105,31.8444913 C30.3935952,31.6660021 30.8967104,31.2316034 31.1623065,30.6536686 C31.4242939,30.0785171 31.4197928,29.417195 31.1500008,28.8456629 L31.1490542,28.8466095 L31.1490542,28.8470828 Z M28.2339998,30.0331724 L11.2302262,35.0605644 C10.7114895,35.2148601 10.2135779,34.7652252 10.3214903,34.2417555 L16.396295,5.15416111 C16.509887,4.60986618 17.2614873,4.52372559 17.4990839,5.02731672 L28.7446905,28.9081385 C28.8455033,29.1234899 28.8464499,29.3719724 28.7480036,29.5882705 C28.6495572,29.8045685 28.4611838,29.9669104 28.2325799,30.0322258 L28.2335265,30.0322258 L28.2339998,30.0331724 Z" id="Shape"></path>
                </g>
                <g id="A" fill="#FFFFFF">
                    <path d="M31.1490542,28.8470828 L18.1276262,1.19453381 C17.7982095,0.501149404 17.1147644,0.0444149622 16.3480185,0.00465776734 C15.5793794,-0.046931926 14.8462377,0.333127925 14.4453527,0.991014841 L0.322555809,23.8651276 C-0.115923798,24.5703277 -0.106698355,25.4655647 0.346220806,26.1615789 L7.25119362,36.8543711 C7.78752442,37.6790391 8.80265629,38.0523456 9.7454843,37.7716264 L29.7831105,31.8444913 C30.3935952,31.6660021 30.8967104,31.2316034 31.1623065,30.6536686 C31.4242939,30.0785171 31.4197928,29.417195 31.1500008,28.8456629 L31.1490542,28.8466095 L31.1490542,28.8470828 Z M28.2339998,30.0331724 L11.2302262,35.0605644 C10.7114895,35.2148601 10.2135779,34.7652252 10.3214903,34.2417555 L16.396295,5.15416111 C16.509887,4.60986618 17.2614873,4.52372559 17.4990839,5.02731672 L28.7446905,28.9081385 C28.8455033,29.1234899 28.8464499,29.3719724 28.7480036,29.5882705 C28.6495572,29.8045685 28.4611838,29.9669104 28.2325799,30.0322258 L28.2335265,30.0322258 L28.2339998,30.0331724 Z" id="Shape"></path>
                </g>
            </g>
            <path d="M479.537356,63.5569449 L479.537356,57.5569449 L483.581356,63.5569449 L485.345356,63.5569449 L485.345356,55.3249449 L483.737356,55.3249449 L483.737356,61.3129449 L479.693356,55.3249449 L477.929356,55.3249449 L477.929356,63.5569449 L479.537356,63.5569449 Z M489.509356,63.7249449 C490.973356,63.7249449 492.221356,62.8369449 492.617356,61.5169449 L491.153356,61.5169449 C490.877356,62.1169449 490.217356,62.5249449 489.509356,62.5249449 C488.573356,62.5249449 487.853356,61.9009449 487.721356,60.9529449 L492.641356,60.9529449 L492.761356,60.8329449 L492.761356,60.5569449 C492.761356,58.6609449 491.465356,57.3889449 489.509356,57.3889449 C487.553356,57.3889449 486.257356,58.6609449 486.257356,60.5569449 C486.257356,62.4529449 487.553356,63.7249449 489.509356,63.7249449 Z M491.201356,59.7529449 L487.817356,59.7529449 C488.093356,59.0089449 488.705356,58.5889449 489.509356,58.5889449 C490.313356,58.5889449 490.925356,59.0089449 491.201356,59.7529449 Z M495.101356,63.5569449 L496.505356,61.4329449 L497.897356,63.5569449 L499.661356,63.5569449 L497.333356,60.3889449 L499.433356,57.5569449 L497.669356,57.5569449 L496.505356,59.3569449 L495.317356,57.5569449 L493.565356,57.5569449 L495.665356,60.3889449 L493.337356,63.5569449 L495.101356,63.5569449 Z M503.213356,63.7249449 C503.801356,63.7249449 504.449356,63.4849449 504.845356,63.1129449 L504.845356,63.5569449 L506.285356,63.5569449 L506.285356,57.5569449 L504.845356,57.5569449 L504.845356,61.1209449 C504.845356,61.9249449 504.257356,62.4529449 503.381356,62.4529449 C502.505356,62.4529449 501.917356,61.9249449 501.917356,61.1209449 L501.917356,57.5569449 L500.477356,57.5569449 L500.477356,61.2889449 C500.477356,62.7529449 501.569356,63.7249449 503.213356,63.7249449 Z M509.933356,63.7249449 C511.601356,63.7249449 512.717356,62.9329449 512.717356,61.7449449 C512.717356,60.6529449 512.081356,60.1969449 510.077356,59.7769449 C509.225356,59.5849449 508.949356,59.4289449 508.949356,59.1769449 C508.949356,58.8289449 509.345356,58.5889449 509.933356,58.5889449 C510.461356,58.5889449 510.941356,58.8649449 511.121356,59.2729449 L512.441356,58.9489449 C512.093356,58.0129449 511.085356,57.3889449 509.933356,57.3889449 C508.481356,57.3889449 507.509356,58.1329449 507.509356,59.2489449 C507.509356,60.2449449 508.061356,60.6409449 509.801356,61.0369449 C510.917356,61.2529449 511.277356,61.4569449 511.277356,61.7449449 C511.277356,62.2129449 510.737356,62.5249449 509.933356,62.5249449 C509.129356,62.5249449 508.553356,62.1169449 508.505356,61.5169449 L507.149356,61.5169449 C507.197356,62.8369449 508.313356,63.7249449 509.933356,63.7249449 Z" id="Nexus" fill="#FFFFFF" fill-rule="nonzero"></path>
            <circle id="Oval" fill="#FFFFFF" cx="482.051742" cy="27.5612178" r="3.85186846"></circle>
            <circle id="Oval-Copy" fill="#FFFFFF" cx="491.420995" cy="13.1503653" r="3.85186846"></circle>
            <circle id="Oval-Copy-2" fill="#FFFFFF" cx="498.826209" cy="27.5612178" r="3.85186846"></circle>
            <g id="Group" transform="translate(392.409562, 1.044002)" fill="#FFFFFF" fill-rule="nonzero">
                <polygon id="Shape" points="19.9613794 10.2471459 16.2614441 10.2471459 10.9170931 24.1180968 14.2668287 24.1180968 15.1347148 21.7580558 20.1897705 21.7580558 19.2762062 19.1696237 15.9416966 19.1696237 18.1037987 13.2010038 21.9559947 24.1180968 25.3057304 24.1180968"></polygon>
                <path d="M31.4113849,28.3204925 C31.1525417,28.3204925 30.9241507,28.4423011 30.787116,28.64024 C30.787116,28.64024 30.1171689,29.4015435 29.7669693,29.7669693 C28.2443621,31.2895764 26.4781379,32.4772099 24.5139747,33.3146439 C22.4736811,34.1825299 20.311579,34.6088599 18.0733465,34.6088599 C15.8351141,34.6088599 13.673012,34.1673038 11.6327184,33.3146439 C9.66855523,32.4772099 7.8871049,31.2895764 6.37972385,29.7669693 C4.85711672,28.2443621 3.66948317,26.4781379 2.83204925,24.5139747 C1.96416319,22.4736811 1.53783319,20.311579 1.53783319,18.0733465 C1.53783319,15.8351141 1.97938926,13.673012 2.83204925,11.6327184 C3.6542571,9.66855523 4.84189065,7.8871049 6.36449777,6.37972385 C7.8871049,4.85711672 9.65332916,3.66948317 11.6174923,2.83204925 C13.6577859,1.96416319 15.819888,1.53783319 18.0581205,1.53783319 C20.2963529,1.53783319 22.4584551,1.97938926 24.4987486,2.83204925 C25.9299993,3.4410921 27.2546675,4.2328478 28.4575271,5.20731636 C28.3966228,5.39002922 28.3509446,5.60319421 28.3509446,5.81635921 C28.3509446,6.85173205 29.1883785,7.68916597 30.2237514,7.68916597 C31.2591242,7.68916597 32.0965582,6.85173205 32.0965582,5.81635921 C32.0965582,4.78098637 31.2591242,3.94355245 30.2237514,3.94355245 C29.9649082,3.94355245 29.721291,3.98923066 29.508126,4.09581316 C26.3867814,1.53783319 22.4127768,0 18.0581205,0 C8.08504382,0 0,8.08504382 0,18.0733465 C0,28.0616493 8.08504382,36.1466931 18.0733465,36.1466931 C23.6613147,36.1466931 28.64024,33.6191653 31.9595235,29.6299346 C32.0965582,29.4929 32.1879146,29.294961 32.1879146,29.0970221 C32.1726885,28.6706921 31.8224889,28.3204925 31.4113849,28.3204925 Z" id="Path"></path>
            </g>
            <path d="M391.763535,62.5249449 L392.579535,60.4129449 L395.915535,60.4129449 L396.743535,62.5249449 L398.459535,62.5249449 L395.087535,54.2929449 L393.431535,54.2929449 L390.035535,62.5249449 L391.763535,62.5249449 Z M395.351535,58.9729449 L393.143535,58.9729449 L394.247535,56.1409449 L395.351535,58.9729449 Z M400.715535,64.7569449 L400.715535,61.8649449 C401.171535,62.3569449 401.975535,62.6929449 402.707535,62.6929449 C404.603535,62.6929449 405.875535,61.4209449 405.875535,59.5249449 C405.875535,57.6289449 404.603535,56.3569449 402.707535,56.3569449 C401.975535,56.3569449 401.171535,56.6929449 400.715535,57.1849449 L400.715535,56.5249449 L399.275535,56.5249449 L399.275535,64.7569449 L400.715535,64.7569449 Z M402.563535,61.4209449 C401.459535,61.4209449 400.715535,60.6649449 400.715535,59.5249449 C400.715535,58.3849449 401.459535,57.6289449 402.563535,57.6289449 C403.691535,57.6289449 404.435535,58.3849449 404.435535,59.5249449 C404.435535,60.6649449 403.691535,61.4209449 402.563535,61.4209449 Z M409.751535,62.6929449 C411.707535,62.6929449 413.003535,61.4209449 413.003535,59.5249449 C413.003535,57.6289449 411.707535,56.3569449 409.751535,56.3569449 C407.795535,56.3569449 406.499535,57.6289449 406.499535,59.5249449 C406.499535,61.4209449 407.795535,62.6929449 409.751535,62.6929449 Z M409.751535,61.4209449 C408.659535,61.4209449 407.939535,60.6649449 407.939535,59.5249449 C407.939535,58.3849449 408.659535,57.6289449 409.751535,57.6289449 C410.843535,57.6289449 411.563535,58.3849449 411.563535,59.5249449 C411.563535,60.6649449 410.843535,61.4209449 409.751535,61.4209449 Z M415.307535,62.5249449 L415.307535,54.2929449 L413.867535,54.2929449 L413.867535,62.5249449 L415.307535,62.5249449 Z M417.851535,62.5249449 L417.851535,54.2929449 L416.411535,54.2929449 L416.411535,62.5249449 L417.851535,62.5249449 Z M421.967535,62.6929449 C423.923535,62.6929449 425.219535,61.4209449 425.219535,59.5249449 C425.219535,57.6289449 423.923535,56.3569449 421.967535,56.3569449 C420.011535,56.3569449 418.715535,57.6289449 418.715535,59.5249449 C418.715535,61.4209449 420.011535,62.6929449 421.967535,62.6929449 Z M421.967535,61.4209449 C420.875535,61.4209449 420.155535,60.6649449 420.155535,59.5249449 C420.155535,58.3849449 420.875535,57.6289449 421.967535,57.6289449 C423.059535,57.6289449 423.779535,58.3849449 423.779535,59.5249449 C423.779535,60.6649449 423.059535,61.4209449 421.967535,61.4209449 Z" id="Apollo" fill="#FFFFFF" fill-rule="nonzero"></path>
            <g id="postgresql" transform="translate(569.979361, 1.044002)" stroke-linecap="round" stroke-linejoin="round">
                <g id="A">
                    <path d="M35.1287854,22.7165121 C30.5218701,23.647448 30.2049753,22.119464 30.2049753,22.119464 C35.0695398,15.0476585 37.1027184,6.07081009 35.3478561,3.87367295 C30.5609079,-2.11931253 22.2738797,0.71528831 22.1351809,0.788771158 L22.0906319,0.79657871 C21.1803631,0.611493788 20.1617071,0.501269516 19.0167525,0.482898805 C16.932136,0.449372255 15.350877,1.01840506 14.1508102,1.90984385 C14.1508102,1.90984385 -0.632560928,-4.05696337 0.0549629646,9.41427966 C0.201010124,12.2801107 4.24761869,31.0995272 9.0736047,25.4151697 C10.8376523,23.3365237 12.5419951,21.5793651 12.5419951,21.5793651 C13.3884257,22.1304864 14.4020297,22.4115583 15.4643161,22.3105194 L15.5469843,22.2420885 C15.5212653,22.500197 15.5332063,22.7527943 15.5800516,23.0513184 C14.3368137,24.4121288 14.7019316,24.6514074 12.2168335,25.1524685 C9.70188305,25.6604187 11.1793476,26.5642577 12.1438099,26.8007807 C13.3131057,27.0873638 16.0186523,27.4933565 17.8465382,24.9857543 L17.7735146,25.2718782 C18.2607977,25.653989 18.6029522,27.758354 18.5455438,29.6661524 C18.4881353,31.5739509 18.450016,32.8833234 18.8339639,33.906572 C19.2179118,34.9298207 19.6004819,37.2312116 22.867713,36.5455248 C25.5976008,35.9723586 27.0126049,34.4866272 27.2091715,32.0088775 C27.3487889,30.2471262 27.6647651,30.5075311 27.6849729,28.9327018 L27.9384887,28.1873101 C28.2310423,25.7995769 27.9848748,25.0289255 29.6667135,25.3871544 L30.0754618,25.422518 C31.3136478,25.4776301 32.9339446,25.2273292 33.8846289,24.7942397 C35.932504,23.8633038 37.1468081,22.3086823 35.1278668,22.7169714 L35.1287854,22.7165121 Z" id="Path"></path>
                    <g id="Group" stroke="#FFFFFF" stroke-width="0.918535595">
                        <path d="M18.0449419,24.0855894 C17.9181839,28.5290054 18.0766313,33.0031923 18.5207433,34.0907384 C18.9648553,35.1782846 19.9150803,37.2932128 23.1827707,36.6075259 C25.9126585,36.0339005 26.9060547,34.9243095 27.3368479,32.4750343 C27.654202,30.6728675 28.2664059,25.6682263 28.3449407,24.6426813 M14.1287653,1.81064201 C14.1287653,1.81064201 -0.664709674,-4.11299404 0.0232734865,9.35824899 C0.169320646,12.22408 4.21592921,31.0439558 9.04237449,25.3595983 C10.8059628,23.2809523 12.4009999,21.6505516 12.4009999,21.6505516 M22.1191065,0.729525612 C21.6070229,0.887054466 30.3482669,-2.40130296 35.3157074,3.81810155 C37.0705696,6.01523869 35.0369318,14.9920871 30.1728266,22.0638926 M30.1728266,22.0634333 C30.1728266,22.0634333 30.4897214,23.5923358 35.0970959,22.6604815 C37.1155779,22.2521924 35.9008145,23.8068139 33.8533987,24.738209 C32.1733971,25.5019713 28.4064826,25.6980787 28.3449407,24.642222 C28.1864934,21.9183047 30.3275998,22.7459053 30.1728266,22.0634333 C30.0332092,21.448933 29.0756358,20.8454551 28.4423055,19.3408938 C27.8893471,18.0278472 20.8593349,7.95794147 30.3918973,9.45377669 C30.7409408,9.38304945 27.9058807,0.569700418 18.9846038,0.426408866 C10.0633268,0.283117313 10.3577175,11.1732753 10.3577175,11.1732753" id="Shape"></path>
                        <path d="M15.5483621,22.9948284 C14.3046649,24.3556389 14.6707013,24.5949174 12.185144,25.0959786 C9.67019357,25.6039288 11.1476581,26.5077678 12.1121204,26.7438315 C13.2814163,27.0304146 15.9869629,27.4364073 17.8148487,24.9283459 C18.3714813,24.1645835 17.8116338,22.9466053 17.0469529,22.635681 C16.6772424,22.4859597 16.1835295,22.2976599 15.5483621,22.9939099 L15.5483621,22.9948284 Z M15.4670717,22.9714058 C15.3416916,22.1713613 15.7352841,21.2192991 16.1573512,20.1051154 C16.7911408,18.4338399 18.2539087,16.7621051 17.0841536,11.4598584 C16.2120041,7.50877757 10.3618509,10.6377691 10.3581767,11.1732753 C10.3545026,11.7087816 10.622715,13.8884665 10.2603527,16.4272989 C9.78776612,19.7395383 12.4115631,22.5410718 15.4330859,22.2544887 M14.075031,11.0933627 C14.0488527,11.2761513 14.4167263,11.7648122 14.8971204,11.8300283 C15.3775145,11.8952443 15.7867221,11.514052 15.8129004,11.3312634 C15.8390786,11.1484749 15.4712051,10.9468563 14.990811,10.881181 C14.5104169,10.8155057 14.10075,10.9110334 14.0754903,11.0933627 L14.075031,11.0933627 Z M28.6760728,10.7204373 C28.7022511,10.9032259 28.3343776,11.3918868 27.8539835,11.4571028 C27.3735894,11.5223188 26.9639225,11.1411266 26.9377442,10.958338 C26.9115659,10.7755494 27.280358,10.5739308 27.7602928,10.5082556 C28.2402277,10.4425803 28.6503538,10.538108 28.6765321,10.7208965 L28.6760728,10.7204373 Z M30.3918973,9.45377669 C30.4708914,10.8889886 30.0763803,11.8667697 30.0267794,13.3942944 C29.9532966,15.6148542 31.1074365,18.1569014 29.3681894,20.7017043" id="Shape"></path>
                    </g>
                </g>
            </g>
            <path d="M566.193267,62.4409449 L566.193267,59.3329449 L568.245267,59.3329449 C569.949267,59.3329449 571.089267,58.3009449 571.089267,56.7529449 C571.089267,55.2289449 569.949267,54.2089449 568.245267,54.2089449 L564.585267,54.2089449 L564.585267,62.4409449 L566.193267,62.4409449 Z M568.245267,57.8929449 L566.193267,57.8929449 L566.193267,55.6489449 L568.245267,55.6489449 C568.989267,55.6489449 569.481267,56.0929449 569.481267,56.7529449 C569.481267,57.4369449 568.989267,57.8929449 568.245267,57.8929449 Z M574.965267,62.6089449 C576.921267,62.6089449 578.217267,61.3369449 578.217267,59.4409449 C578.217267,57.5449449 576.921267,56.2729449 574.965267,56.2729449 C573.009267,56.2729449 571.713267,57.5449449 571.713267,59.4409449 C571.713267,61.3369449 573.009267,62.6089449 574.965267,62.6089449 Z M574.965267,61.3369449 C573.873267,61.3369449 573.153267,60.5809449 573.153267,59.4409449 C573.153267,58.3009449 573.873267,57.5449449 574.965267,57.5449449 C576.057267,57.5449449 576.777267,58.3009449 576.777267,59.4409449 C576.777267,60.5809449 576.057267,61.3369449 574.965267,61.3369449 Z M581.625267,62.6089449 C583.293267,62.6089449 584.409267,61.8169449 584.409267,60.6289449 C584.409267,59.5369449 583.773267,59.0809449 581.769267,58.6609449 C580.917267,58.4689449 580.641267,58.3129449 580.641267,58.0609449 C580.641267,57.7129449 581.037267,57.4729449 581.625267,57.4729449 C582.153267,57.4729449 582.633267,57.7489449 582.813267,58.1569449 L584.133267,57.8329449 C583.785267,56.8969449 582.777267,56.2729449 581.625267,56.2729449 C580.173267,56.2729449 579.201267,57.0169449 579.201267,58.1329449 C579.201267,59.1289449 579.753267,59.5249449 581.493267,59.9209449 C582.609267,60.1369449 582.969267,60.3409449 582.969267,60.6289449 C582.969267,61.0969449 582.429267,61.4089449 581.625267,61.4089449 C580.821267,61.4089449 580.245267,61.0009449 580.197267,60.4009449 L578.841267,60.4009449 C578.889267,61.7209449 580.005267,62.6089449 581.625267,62.6089449 Z M588.009267,62.6089449 C588.405267,62.6089449 588.813267,62.5369449 589.029267,62.4409449 L589.029267,61.4089449 L587.985267,61.4089449 C587.673267,61.4089449 587.457267,61.2049449 587.457267,60.9049449 L587.457267,57.6409449 L588.969267,57.6409449 L588.969267,56.4409449 L587.457267,56.4409449 L587.457267,54.2089449 L586.017267,54.2089449 L586.017267,56.4409449 L585.057267,56.4409449 L585.057267,57.6409449 L586.017267,57.6409449 L586.017267,60.9049449 C586.017267,61.9249449 586.809267,62.6089449 588.009267,62.6089449 Z M592.821267,64.8409449 C594.837267,64.8409449 595.965267,63.7369449 595.965267,61.7809449 L595.965267,56.4409449 L594.525267,56.4409449 L594.525267,57.0289449 C594.081267,56.5729449 593.349267,56.2729449 592.689267,56.2729449 C590.877267,56.2729449 589.677267,57.5089449 589.677267,59.3569449 C589.677267,61.2049449 590.877267,62.4409449 592.689267,62.4409449 C593.349267,62.4409449 594.081267,62.1409449 594.525267,61.6849449 L594.525267,61.7809449 C594.525267,62.9209449 593.913267,63.5689449 592.821267,63.5689449 C592.017267,63.5689449 591.369267,63.1129449 591.189267,62.4409449 L589.749267,62.4409449 C589.953267,63.8809449 591.177267,64.8409449 592.821267,64.8409449 Z M592.833267,61.1689449 C591.801267,61.1689449 591.117267,60.4489449 591.117267,59.3569449 C591.117267,58.2649449 591.801267,57.5449449 592.833267,57.5449449 C593.853267,57.5449449 594.525267,58.2649449 594.525267,59.3569449 C594.525267,60.4489449 593.853267,61.1689449 592.833267,61.1689449 Z M598.509267,62.4409449 L598.509267,58.8889449 C598.509267,58.0849449 599.145267,57.5449449 600.105267,57.5449449 L600.597267,57.5449449 L600.597267,56.4409449 C600.429267,56.3689449 600.177267,56.3209449 599.961267,56.3209449 C599.409267,56.3209449 598.821267,56.6569449 598.509267,57.1489449 L598.509267,56.4409449 L597.069267,56.4409449 L597.069267,62.4409449 L598.509267,62.4409449 Z M604.497267,62.6089449 C605.961267,62.6089449 607.209267,61.7209449 607.605267,60.4009449 L606.141267,60.4009449 C605.865267,61.0009449 605.205267,61.4089449 604.497267,61.4089449 C603.561267,61.4089449 602.841267,60.7849449 602.709267,59.8369449 L607.629267,59.8369449 L607.749267,59.7169449 L607.749267,59.4409449 C607.749267,57.5449449 606.453267,56.2729449 604.497267,56.2729449 C602.541267,56.2729449 601.245267,57.5449449 601.245267,59.4409449 C601.245267,61.3369449 602.541267,62.6089449 604.497267,62.6089449 Z M606.189267,58.6369449 L602.805267,58.6369449 C603.081267,57.8929449 603.693267,57.4729449 604.497267,57.4729449 C605.301267,57.4729449 605.913267,57.8929449 606.189267,58.6369449 Z M611.157267,62.6089449 C612.825267,62.6089449 613.941267,61.8169449 613.941267,60.6289449 C613.941267,59.5369449 613.305267,59.0809449 611.301267,58.6609449 C610.449267,58.4689449 610.173267,58.3129449 610.173267,58.0609449 C610.173267,57.7129449 610.569267,57.4729449 611.157267,57.4729449 C611.685267,57.4729449 612.165267,57.7489449 612.345267,58.1569449 L613.665267,57.8329449 C613.317267,56.8969449 612.309267,56.2729449 611.157267,56.2729449 C609.705267,56.2729449 608.733267,57.0169449 608.733267,58.1329449 C608.733267,59.1289449 609.285267,59.5249449 611.025267,59.9209449 C612.141267,60.1369449 612.501267,60.3409449 612.501267,60.6289449 C612.501267,61.0969449 611.961267,61.4089449 611.157267,61.4089449 C610.353267,61.4089449 609.777267,61.0009449 609.729267,60.4009449 L608.373267,60.4009449 C608.421267,61.7209449 609.537267,62.6089449 611.157267,62.6089449 Z" id="Postgres" fill="#FFFFFF" fill-rule="nonzero"></path>
        </g>
        <g id="logo" transform="translate(375.654595, 190.735837)" fill-rule="nonzero">
            <path d="M43.6434283,13.3343801 C43.6434283,14.7339629 42.7189109,15.6670181 41.4510535,15.6670181 C40.1831199,15.6670181 39.2586025,14.7339629 39.2586025,13.3343801 L39.2586025,8.28033114 L37.2775372,8.28033114 L37.2775372,13.4121347 C37.2775372,15.9521183 39.3378817,17.5072103 41.4510535,17.5072103 C43.5641491,17.5072103 45.6244936,15.9521183 45.6244936,13.4121347 L45.6244936,8.28033114 L43.6434283,8.28033114 L43.6434283,13.3343801 Z" id="Path" fill="#FFFFFF"></path>
            <path d="M71.6958396,9.42050322 L71.6958396,8.28010242 L69.7146984,8.28010242 L69.7146984,17.2737178 L71.6958396,17.2737178 L71.6958396,12.7380328 C71.6958396,11.8308958 71.9863524,11.1829408 72.5410776,10.7682496 C73.0693518,10.3535584 74.1259758,10.172131 74.8920108,10.2239674 L74.8920108,8.09867502 C73.5184224,8.09867502 72.3033162,8.61703902 71.6958396,9.42050322 Z" id="Path" fill="#FFFFFF"></path>
            <path d="M90.5292234,8.04676242 C89.4200772,8.04676242 88.3635294,8.53920822 87.5974176,9.29083602 L87.5974176,5.61042112 L85.6162002,5.61042112 L85.6162002,17.2736416 L87.5974176,17.2736416 L87.5974176,12.40102 C87.5974176,10.975519 88.6272852,9.83511822 90.02763,9.83511822 C91.2953352,9.83511822 91.9821672,10.5608278 91.9821672,11.9085742 L91.9821672,17.2218052 L93.9633852,17.2218052 L93.9633852,11.7271468 C93.9633852,9.44634522 92.642319,8.04676242 90.5292234,8.04676242 Z" id="Path" fill="#FFFFFF"></path>
            <path d="M112.690809,10.1462891 L112.690809,8.28017868 L110.313958,8.28017868 L110.313958,5.79206197 L108.33274,6.56960796 L108.33274,8.28017868 L106.827197,8.28017868 L106.827197,10.1462891 L108.33274,10.1462891 L108.33274,13.9044281 C108.33274,16.2629843 109.653044,17.5588943 112.690809,17.2737941 L112.690809,15.5372747 C110.947429,15.7187021 110.313958,15.0189107 110.313958,13.8525917 L110.313958,10.1462891 L112.690809,10.1462891 Z" id="Path" fill="#FFFFFF"></path>
            <path d="M103.340437,9.34290108 C102.495047,8.53943688 101.332539,8.04699108 100.117433,8.04699108 C97.5553428,8.04699108 95.5741248,10.1722835 95.5741248,12.7641035 C95.5741248,15.3559235 97.5553428,17.4811397 100.117433,17.4811397 C101.35922,17.4811397 102.495047,16.9887701 103.340437,16.1853059 L103.340437,17.2479521 L105.321655,17.2479521 L105.321655,8.28025488 L103.340437,8.28025488 L103.340437,9.34290108 Z M100.408631,15.6410237 C98.7971292,15.6410237 97.5553428,14.3451137 97.5553428,12.7641035 C97.5553428,11.1830933 98.82381,9.88718328 100.408631,9.88718328 C101.993453,9.88718328 103.340437,11.0535023 103.340437,12.7641035 C103.340437,14.4747047 101.993453,15.6410237 100.408631,15.6410237 Z" id="Shape" fill="#FFFFFF"></path>
            <path d="M80.0689428,9.88718328 C81.390009,9.88718328 82.182801,10.4055473 82.5784344,11.1830933 L84.2166174,10.2500381 C83.3979072,8.92820988 81.9182826,8.04699108 79.9637454,8.04699108 C77.3749746,8.04699108 75.2089752,10.1722835 75.2089752,12.7641035 C75.2089752,15.3818417 77.3749746,17.4811397 79.9637454,17.4811397 C81.9182826,17.4811397 83.3979072,16.5999971 84.2166174,15.2781689 L82.5784344,14.3451137 C82.182801,15.1226597 81.390009,15.6410237 80.0689428,15.6410237 C78.4841214,15.6410237 77.2164162,14.3451137 77.2164162,12.7641035 C77.2164162,11.1830933 78.4841214,9.88718328 80.0689428,9.88718328 Z" id="Path" fill="#FFFFFF"></path>
            <path d="M52.7037449,8.04699108 C51.4622632,8.04699108 50.3264362,8.53943688 49.4811979,9.34290108 L49.4811979,8.28025488 L47.5000564,8.28025488 L47.5000564,19.9433687 L49.4811979,19.9433687 L49.4811979,16.1853059 C50.3264362,16.9887701 51.4886387,17.4811397 52.7037449,17.4811397 C55.2659877,17.4811397 57.2470529,15.3559235 57.2470529,12.7641035 C57.2470529,10.1722835 55.2395359,8.04699108 52.7037449,8.04699108 Z M52.3867806,15.6410237 C50.7755071,15.6410237 49.4547461,14.4747047 49.4547461,12.7641035 C49.4547461,11.0535023 50.7755071,9.88718328 52.3867806,9.88718328 C53.9980541,9.88718328 55.2395359,11.1830933 55.2395359,12.7641035 C55.2395359,14.3451137 53.9980541,15.6410237 52.3867806,15.6410237 Z" id="Shape" fill="#FFFFFF"></path>
            <path d="M63.3485784,8.04699108 C60.75996,8.04699108 58.5146816,10.1722835 58.5146816,12.7641035 C58.5146816,15.3818417 60.839163,17.4811397 63.401406,17.4811397 C65.3560956,17.4811397 66.782511,16.5481607 67.6012974,15.2781689 L65.9636484,14.3451137 C65.5674048,15.1226597 64.6957152,15.7706147 63.401406,15.7446965 C62.0542692,15.6928601 60.75996,14.8893959 60.5486502,13.5675677 L68.1031962,13.5675677 C68.1560232,13.3083857 68.1824754,13.0492037 68.1824754,12.7900217 C68.1824754,12.5308397 68.1560232,12.2457395 68.1031962,11.9865575 C67.7070288,9.73167408 65.646684,8.04699108 63.3485784,8.04699108 Z M60.5486502,11.9865575 C60.839163,10.6906475 62.0014416,9.93901968 63.3485784,9.91310148 C64.7221668,9.88718328 65.8315422,10.6906475 66.095679,11.9865575 L60.5486502,11.9865575 Z" id="Shape" fill="#FFFFFF"></path>
            <path d="M36.0360554,13.9821064 C36.0360554,15.9259714 34.2398479,17.5069816 31.7305088,17.5069816 C29.2475452,17.5069816 27.4777133,16.2110716 26.6324751,14.966998 L28.4550581,13.93027 C28.4550581,13.93027 29.6701643,15.485362 31.5720266,15.485362 C33.4738889,15.485362 33.896508,14.6300614 33.896508,13.9821064 C33.896508,13.4378242 33.6323711,12.7121146 31.2814379,11.9345686 C28.217373,10.9755952 27.081546,10.04254 27.081546,8.09867502 C27.081546,6.15481002 28.8513017,4.57379984 31.3607171,4.57379984 C33.8436806,4.57379984 35.2171928,5.86970984 36.0360554,7.11378342 L34.2926753,8.12459322 C34.2926753,8.12459322 33.3154067,6.62133762 31.5191992,6.62133762 C29.617337,6.62133762 29.1947179,7.47663822 29.1947179,8.12459322 C29.1947179,8.69479362 29.5116822,9.31683042 31.888991,10.0943764 C34.9795076,11.0274316 36.0360554,12.0382414 36.0360554,13.9821064 Z" id="Path" fill="#FFFFFF"></path>
            <path d="M10.9158311,9.37796688 L21.4816903,15.3650711 C21.9835123,15.6501713 21.9835123,16.3758809 21.4816903,16.6609811 L10.9158311,22.6221671 L6.21403326,25.2917417 C5.71215021,25.5768419 5.07820629,25.2139871 5.07820629,24.6437867 L5.07820629,19.3305557 L0.376407732,16.6609811 C-0.125469244,16.3758809 -0.125469244,15.6501713 0.376407732,15.3650711 L10.9158311,9.37796688 Z" id="Path" fill="url(#linearGradient-1)"></path>
            <path d="M0.376407732,13.3438327 L10.2819024,18.9680821 C10.6780697,19.2013459 11.1535925,19.2013459 11.5497598,18.9680821 L21.4816903,13.3438327 C21.9835123,13.0587325 21.9835123,12.3330229 21.4816903,12.0479227 L10.9158311,6.06080322 L0.376407732,12.0479227 C-0.125469244,12.3330229 -0.125469244,13.0587325 0.376407732,13.3438327 Z" id="Path" fill="url(#linearGradient-2)"></path>
            <path d="M10.2819024,15.6503237 L0.376407732,10.0260743 C-0.125469244,9.74097414 -0.125469244,9.01526454 0.376407732,8.73016434 L10.9158311,2.76897074 L15.6176212,0.0993969063 C16.1195196,-0.185703294 16.7534483,0.177151506 16.7534483,0.747351906 L16.7534483,6.06058212 L21.4816903,8.73016434 C21.9835123,9.01526454 21.9835123,9.74097414 21.4816903,10.0260743 L11.5497598,15.6503237 C11.1799681,15.8835875 10.6780697,15.8835875 10.2819024,15.6503237 Z" id="Path" fill="#85E3FF"></path>
        </g>
        <circle id="Oval" stroke="#979797" stroke-width="1.5" opacity="0.0516698928" cx="758.735837" cy="-128.264163" r="284.735837"></circle>
        <circle id="Oval-Copy" stroke="#979797" stroke-width="1.5" opacity="0.0516698928" cx="-33.264163" cy="135.735837" r="284.735837"></circle>
        <path d="M607,98 L616.5,83.5 L624,98 L626.503566,94.1055646 M630.086939,88.531428 L633,84" id="Shape" stroke="#FFFFFF" stroke-width="2.7" stroke-linecap="square"></path>
        <circle id="Oval-Copy-3" fill="#FFFFFF" cx="633.240337" cy="83.7298928" r="3.85186846"></circle>
        <circle id="Oval-Copy-3" fill="#0E2C4E" cx="633.240337" cy="83.7298928" r="1.5624083"></circle>
    </g>
</svg>